<?xml version="1.0" encoding="UTF-8"?>
<svg version="1.1" xmlns="http://www.w3.org/2000/svg" width="512" height="512">
<path d="M0 0 C12.71086642 8.45434071 20.44764197 25.60447368 23.81640625 40.0078125 C27.57390249 60.23387799 24.32445373 80.33521034 13.44921875 97.91015625 C8.04922999 105.60432861 1.20910889 112.14291967 -5.5 118.6875 C-3.84763349 122.97817546 -0.6094793 125.8304553 2.6015625 128.984375 C3.19802582 129.57800842 3.79448914 130.17164185 4.4090271 130.78326416 C6.3096981 132.67276627 8.21721474 134.55518392 10.125 136.4375 C11.41712468 137.71959065 12.70879676 139.00213761 14 140.28515625 C17.16144479 143.42458432 20.3290461 146.55767801 23.5 149.6875 C28.13707271 145.82004645 32.50859968 141.79908047 36.73046875 137.484375 C37.8742184 136.32799585 39.01810246 135.17174963 40.16210938 134.015625 C41.9347934 132.21802918 43.70581068 130.41884658 45.47436523 128.6171875 C47.20117723 126.86018898 48.93414632 125.10945197 50.66796875 123.359375 C51.45713936 122.55001495 51.45713936 122.55001495 52.26225281 121.7243042 C56.83601859 117.11948481 59.83312288 115.38712137 66.3125 115.1875 C71.66391093 115.26590895 74.4062388 116.25185464 78.1953125 119.984375 C80.84675728 123.44554243 81.80696868 126.19488919 81.875 130.5625 C81.90335937 131.38492188 81.93171875 132.20734375 81.9609375 133.0546875 C80.81125904 139.62149496 75.10427761 144.35255387 70.546875 148.8359375 C69.88665344 149.49332916 69.22643188 150.15072083 68.54620361 150.82803345 C66.45214738 152.91096262 64.35121935 154.98679958 62.25 157.0625 C60.82245579 158.48000476 59.39536753 159.89796886 57.96875 161.31640625 C54.48442016 164.77877494 50.99391332 168.23480344 47.5 171.6875 C49.03287586 174.91064687 50.64150688 177.06485598 53.1953125 179.578125 C53.91074219 180.28710938 54.62617188 180.99609375 55.36328125 181.7265625 C56.10964844 182.45617187 56.85601562 183.18578125 57.625 183.9375 C58.37910156 184.68257812 59.13320313 185.42765625 59.91015625 186.1953125 C61.76900772 188.0306342 63.63237005 189.8611191 65.5 191.6875 C69.45986532 189.87444213 71.94416758 187.27015289 74.875 184.125 C87.59313188 171.0119564 104.57433507 162.09301598 123.06640625 161.3515625 C146.58012052 160.9929613 166.15984903 166.09584475 183.5 182.6875 C187.36340743 187.31662782 187.84518461 191.29690783 187.78515625 197.1796875 C187.25921499 201.80508873 184.82575738 204.52244048 181.4375 207.5 C177.0523228 210.18768925 172.48604805 210.51850801 167.5 209.6875 C164.2141125 208.05584796 161.40530355 205.91456195 158.5 203.6875 C146.76480292 195.10692579 135.91801856 192.11933484 121.5 193.6875 C108.08255408 196.17509136 98.56425911 205.01895695 89.5 214.6875 C94.18462759 220.37709198 99.27228609 225.54265268 104.53113174 230.70210075 C106.04012703 232.18407974 107.54439047 233.67071266 109.04733276 235.15882874 C113.31585078 239.38496242 117.58709753 243.60821276 121.87451172 247.81518555 C124.50968681 250.40159015 127.13478002 252.99787114 129.75374985 255.6006794 C130.74596172 256.58306304 131.74180043 257.56179883 132.74145889 258.53660393 C145.43667688 270.92291159 145.43667688 270.92291159 146 279.8125 C145.30368034 285.2089774 143.27935404 288.05925478 139.31395912 291.68789482 C136.09354564 293.97632731 132.88009617 295.21970239 129.16415405 296.43118286 C128.0592092 296.80538742 128.0592092 296.80538742 126.93194222 297.18715167 C124.44402789 298.02683824 121.95137009 298.85143423 119.45849609 299.67626953 C117.64084735 300.28618088 115.8235064 300.89701014 114.00644493 301.5086689 C110.00263995 302.8540834 105.99661917 304.19262231 101.98888397 305.52628326 C95.27562346 307.7604434 88.56776659 310.01056557 81.86016846 312.26165771 C67.69289535 317.0131632 53.5190244 321.74478881 39.3439374 326.47291708 C35.11715252 327.88278167 30.89051122 329.29307635 26.66389084 330.70343399 C14.89993657 334.62878976 3.13580462 338.55361203 -8.62901878 342.47636223 C-9.74344239 342.84794655 -9.74344239 342.84794655 -10.88037959 343.22703762 C-11.99682674 343.5992958 -11.99682674 343.5992958 -13.13582838 343.97907436 C-14.64312418 344.4816541 -16.15041967 344.98423478 -17.65771484 345.48681641 C-18.77912402 345.86073018 -18.77912402 345.86073018 -19.92318793 346.24219777 C-32.1478499 350.31841289 -44.37114542 354.39870992 -56.59389274 358.48066221 C-69.21971106 362.69716047 -81.84664472 366.91030389 -94.47471583 371.12005055 C-101.53569512 373.47401545 -108.59618651 375.82942081 -115.65543747 378.1885643 C-122.25530775 380.39416896 -128.85668492 382.5952078 -135.45913315 384.79308319 C-137.88372037 385.60102084 -140.30779113 386.41051018 -142.73131561 387.2216301 C-146.02633199 388.32416733 -149.32312809 389.42120462 -152.62045288 390.51681519 C-153.58761211 390.84188706 -154.55477134 391.16695894 -155.55123842 391.50188148 C-156.87034524 391.93828883 -156.87034524 391.93828883 -158.21610069 392.3835125 C-158.97647931 392.63717107 -159.73685794 392.89082964 -160.52027833 393.15217483 C-162.5 393.6875 -162.5 393.6875 -165.5 393.6875 C-165.005 395.1725 -165.005 395.1725 -164.5 396.6875 C-163.10528919 411.61379127 -164.89109206 424.14390495 -174.3046875 436.21484375 C-181.30715955 444.10196974 -190.92601752 450.1613582 -201.5 451.6875 C-216.55380174 452.52831385 -228.58270829 450.24264987 -240.625 440.5625 C-249.15744405 432.71128901 -254.14376655 422.72725994 -254.8125 411.22265625 C-255.33099224 396.70776216 -252.32863823 386.02164559 -242.875 374.75 C-235.08486865 366.38282188 -223.59119774 361.03541605 -212.15234375 360.59765625 C-207.14913677 360.52973941 -202.45714961 360.95636127 -197.5 361.6875 C-197.28992192 361.05498742 -197.07984383 360.42247485 -196.86339974 359.77079523 C-184.41460379 322.29016385 -171.95642349 284.81266369 -159.48603429 247.33921089 C-157.98899342 242.84058396 -156.49203104 238.34193091 -154.99511719 233.84326172 C-154.69710495 232.94765115 -154.39909272 232.05204058 -154.09204981 231.1292903 C-149.26569947 216.62412537 -144.44571251 202.11685358 -139.62807038 187.60879438 C-134.68526326 172.72428081 -129.73563278 157.84204917 -124.7796495 142.96191752 C-121.72130905 133.77866003 -118.6683163 124.59366027 -115.62212178 115.40636654 C-113.5332461 109.1080448 -111.43775179 102.81195013 -109.33702639 96.5175709 C-108.12488735 92.88499996 -106.91570285 89.25151464 -105.7143631 85.61535645 C-104.41177768 81.67300919 -103.09529331 77.73544519 -101.77740479 73.79818726 C-101.39996132 72.64837982 -101.02251786 71.49857238 -100.63363671 70.31392229 C-98.34037891 63.51103812 -96.28643037 58.20855605 -90.875 53.3125 C-86.18901442 51.05628472 -82.59539982 50.786583 -77.5 51.6875 C-70.26829423 55.23844181 -64.66183466 61.12573757 -59.08984375 66.8046875 C-58.23693253 67.66184357 -57.3840213 68.51899963 -56.50526428 69.40213013 C-53.80882265 72.11523336 -51.12305847 74.83862805 -48.4375 77.5625 C-46.60030761 79.41475532 -44.7624236 81.26632491 -42.92382812 83.1171875 C-38.44119146 87.63272724 -33.96725124 92.15674153 -29.5 96.6875 C-28.38410581 95.73818938 -27.26923212 94.7876791 -26.15478516 93.83666992 C-25.53382965 93.30748459 -24.91287415 92.77829926 -24.27310181 92.233078 C-13.70002866 83.0167379 -8.25373545 73.11942094 -6.65234375 59.1796875 C-6.08239706 46.11475567 -10.80166159 36.46365821 -18.59765625 26.36328125 C-21.90277925 21.71439161 -24.16105533 17.62658294 -23.9140625 11.77734375 C-22.88007242 6.55862021 -19.98312096 2.76613343 -15.75 -0.3125 C-10.07906531 -2.05740298 -5.57730272 -2.09148852 0 0 Z " fill="#FE6F88" transform="translate(254.5,56.3125)"/>
<path d="M0 0 C5.445 2.475 5.445 2.475 11 5 C14.42855614 5.85713904 16.95773809 6.13476303 20.4375 6.17578125 C49.77367321 6.7518794 49.77367321 6.7518794 62 19 C70.20707494 28.47370595 71.3332911 39.33079701 71.375 51.4375 C71.58267816 60.60356728 71.92071506 68.1050245 77 76 C77.433125 76.67546875 77.86625 77.3509375 78.3125 78.046875 C83.54678211 85.00609098 91.6489824 89.13200922 100 91 C103.60139145 91.31641333 107.19903929 91.41625244 110.8125 91.5 C123.75859581 91.80377312 135.41010883 93.1603272 145.3359375 102.1796875 C155.29315514 113.07185516 156.43091019 125.62680829 156.43945312 139.72265625 C156.55294099 146.10145707 157.36550006 151.04597423 160.04711914 156.86132812 C160.95818923 158.90615877 161.48749444 160.8283187 162 163 C137.01994214 171.35002156 112.03817896 179.69492279 87.0543623 188.03369141 C75.45461372 191.90543581 63.85543417 195.77886901 52.25756836 199.65625 C42.15169693 203.03482495 32.04478329 206.41026003 21.93659288 209.78189087 C16.58188713 211.56809915 11.2277252 213.35590104 5.87480736 215.14746094 C0.84062639 216.83228824 -4.19493305 218.51292658 -9.23159981 220.19030762 C-11.08369589 220.807949 -12.93527496 221.42714313 -14.78630447 222.04797363 C-17.30623486 222.89289822 -19.82793601 223.73230622 -22.35017395 224.5703125 C-23.45765927 224.94384354 -23.45765927 224.94384354 -24.58751804 225.32492065 C-27.51781667 226.29304061 -29.89129798 227 -33 227 C-32.67 227.99 -32.34 228.98 -32 230 C-30.60528919 244.92629127 -32.39109206 257.45640495 -41.8046875 269.52734375 C-48.80715955 277.41446974 -58.42601752 283.4738582 -69 285 C-84.05380174 285.84081385 -96.08270829 283.55514987 -108.125 273.875 C-116.65744405 266.02378901 -121.64376655 256.03975994 -122.3125 244.53515625 C-122.83099224 230.02026216 -119.82863823 219.33414559 -110.375 208.0625 C-102.58486865 199.69532188 -91.09119774 194.34791605 -79.65234375 193.91015625 C-74.55894675 193.84101511 -70.12583849 194.26773736 -65 195 C-43.55 130.65 -22.1 66.3 0 0 Z " fill="#FECFD6" transform="translate(122,223)"/>
<path d="M0 0 C8.40454951 6.62176628 8.40454951 6.62176628 9.46875 12.8828125 C9.87278068 18.64024972 9.49437069 22.33620077 5.6875 26.8125 C2.15207445 30.39239631 -0.77368581 31.29068328 -5.75 31.4375 C-12.0404294 31.38256175 -15.36105003 29.06948945 -20.375 25.375 C-24.26979886 23.52033388 -27.76527492 23.46775872 -32 24.125 C-36.07633872 26.01219385 -37.63868152 27.51891738 -39.9375 31.375 C-41.14273567 35.62877296 -41.46394935 38.96263592 -40 43.125 C-38.59111931 45.35206919 -37.07386824 47.34995903 -35.375 49.36328125 C-32.22902338 53.3940638 -32.44139768 58.25949279 -33 63.125 C-34.38687105 67.65662325 -36.68898548 70.27254825 -40.8125 72.5625 C-44.66843426 74.22219712 -47.78548826 74.6713256 -52 74.125 C-54.88151516 72.96013217 -57.34911452 71.57315066 -59.90625 69.8125 C-64.42692826 66.75234856 -67.35582181 65.20140721 -73 66.125 C-77.06697881 67.63222403 -79.4641577 69.3471644 -81.9375 72.9375 C-83.56249599 77.81248796 -83.70400975 81.40017612 -81.75 86.1875 C-80.03377253 89.17861131 -80.03377253 89.17861131 -77.875 92 C-75.60384113 95.78526478 -74.79535233 98.72507518 -75 103.125 C-76.6970289 109.01468853 -79.19642023 111.65006995 -84 115.125 C-87.70660467 116.97830234 -91.95467818 116.58625395 -96 116.125 C-99.3125 114.3125 -99.3125 114.3125 -102 112.125 C-106.09801903 108.93765186 -109.50075991 108.61123839 -114.55859375 108.76953125 C-118.17696026 109.29636541 -120.31024985 110.70422486 -123 113.125 C-125.73623481 117.55958746 -125.66579291 122.06336953 -125 127.125 C-123.30755015 130.45607164 -123.30755015 130.45607164 -121 133.125 C-117.81107447 137.22504711 -117.48300369 140.63063549 -117.6484375 145.69140625 C-118.33611214 150.4516429 -121.01289353 153.11047391 -124.25 156.4375 C-128.43576962 159.00604045 -132.24728514 159.53657096 -137.01171875 158.82421875 C-144.31694994 156.7144565 -148.69546257 150.87060261 -152.54296875 144.6171875 C-158.25533009 133.39348633 -159.51156743 120.20594802 -156 108.125 C-150.94849775 95.15530277 -143.62166599 86.24517339 -131 80.125 C-125.68063628 78.04589766 -120.76481105 76.66988334 -115 77.125 C-114.9175 75.866875 -114.835 74.60875 -114.75 73.3125 C-113.26793072 60.55468737 -107.00714643 50.80448099 -97.21875 42.69140625 C-89.48898556 37.23430142 -81.28409989 35.21057538 -72 34.125 C-72.0825 33.196875 -72.165 32.26875 -72.25 31.3125 C-72.20944155 21.27428358 -66.41814579 11.86150076 -59.77734375 4.7421875 C-43.46369145 -10.92512358 -18.63857231 -12.81862285 0 0 Z " fill="#FE958B" transform="translate(503,13.875)"/>
<path d="M0 0 C7.98405789 7.61930398 15.08969742 18.08796368 15.7421875 29.40625 C15.76595573 30.98419654 15.76663717 32.56263318 15.74609375 34.140625 C15.73707031 34.97400391 15.72804688 35.80738281 15.71875 36.66601562 C15.35626752 49.66504001 10.55374721 59.87105324 1.17578125 68.95703125 C-10.45748976 78.60972745 -23.00711184 80.93045194 -37.69140625 79.890625 C-49.06272713 77.98036342 -59.64742089 71.4710548 -66.640625 62.34765625 C-74.62617898 50.47814311 -76.05093166 38.94114742 -74.69140625 24.890625 C-72.38283325 13.68687243 -65.08510542 2.80196308 -55.52734375 -3.546875 C-37.00671202 -14.23919847 -17.04864953 -13.36178628 0 0 Z " fill="#FD4184" transform="translate(74.69140625,428.109375)"/>
<path d="M0 0 C2.7734375 2.48046875 2.7734375 2.48046875 5.375 5.1875 C6.68597656 6.53908203 6.68597656 6.53908203 8.0234375 7.91796875 C9.00183594 8.94857422 9.00183594 8.94857422 10 10 C13.3665617 8.5593206 15.35389099 6.75144712 17.8125 4.0625 C22.41815805 -0.63697701 25.8830863 -2.67190382 32.5625 -3.375 C37.89847912 -2.79289319 41.32100068 -1.02172701 44.8125 3 C48.04393706 7.43168511 48.44368768 10.58701034 48 16 C45.81477559 23.24962964 40.42004994 27.99687697 35 33 C36.9154221 37.59076711 40.32994932 40.34532607 43.90625 43.68359375 C47.52625213 47.68855879 48.47533813 51.55129932 48.3125 56.9453125 C47.56077355 61.88791393 44.98229919 65.06561784 41.4375 68.4375 C36.55136336 70.6584712 32.28151777 70.75336965 27 70 C20.99638051 67.23833504 16.54031683 61.7219295 12 57 C11.57589844 57.36351562 11.15179688 57.72703125 10.71484375 58.1015625 C9.48223028 59.15808834 8.2491229 60.21403812 7.015625 61.26953125 C5.68900974 62.40846645 4.36598187 63.55159577 3.046875 64.69921875 C2.43328125 65.23160156 1.8196875 65.76398438 1.1875 66.3125 C0.34251953 67.04919922 0.34251953 67.04919922 -0.51953125 67.80078125 C-4.87417817 71.32816015 -10.69168974 70.49960567 -16 70 C-20.50397908 67.86653622 -22.98482656 65.56065568 -25 61 C-26.20396693 55.9989066 -26.49589352 51.58951848 -24 47 C-21.84014961 44.32195133 -19.56848256 41.81875853 -17.19140625 39.33203125 C-15.28599817 37.304351 -13.61593294 35.26022775 -12 33 C-12.75925781 32.31035156 -13.51851563 31.62070313 -14.30078125 30.91015625 C-25.40414748 20.53822729 -25.40414748 20.53822729 -26 13 C-25.68034478 7.00370889 -23.22268444 3.12448248 -19 -1 C-12.53342074 -4.84499307 -6.13980476 -3.59517085 0 0 Z " fill="#FFEEF0" transform="translate(454,134)"/>
<path d="M0 0 C3.36592975 1.97742999 5.73277587 4.1740645 8.43359375 6.984375 C9.74457031 8.33595703 9.74457031 8.33595703 11.08203125 9.71484375 C12.06042969 10.74544922 12.06042969 10.74544922 13.05859375 11.796875 C16.68129499 10.28192721 18.87330995 8.12929764 21.55859375 5.296875 C24.95482043 1.71455371 27.43715344 -0.83110542 32.42578125 -1.5390625 C38.18321053 -1.62874208 41.56492047 -1.16183718 46.05859375 2.796875 C49.44805137 6.09472566 50.82048172 8.92000217 51.1328125 13.703125 C50.8258476 22.36276652 45.26099016 27.09494737 39.359375 32.671875 C38.60011719 33.373125 37.84085937 34.074375 37.05859375 34.796875 C37.42210937 35.22097656 37.785625 35.64507812 38.16015625 36.08203125 C39.2217435 37.32054971 40.27868974 38.56305486 41.33203125 39.80859375 C42.42811511 41.07082607 43.55573727 42.30685556 44.72265625 43.50390625 C48.84706666 47.84164824 50.70546265 51.77224434 51.05859375 57.796875 C50.36724914 63.62392246 48.12776759 66.13613132 43.71484375 69.6328125 C39.46306072 72.62109397 35.09750222 72.32810876 30.05859375 71.796875 C24.05931235 68.98088577 19.60938693 63.52969991 15.05859375 58.796875 C10.46782664 60.7122971 7.71326768 64.12682432 4.375 67.703125 C0.0979392 71.56906866 -4.06857085 72.26914794 -9.6640625 72.1015625 C-13.43329683 71.59727386 -16.14551366 70.38271348 -18.94140625 67.796875 C-22.3880894 63.09592549 -23.69920121 58.64272181 -22.94140625 52.796875 C-20.87676639 47.78668226 -18.10546309 44.57961156 -14.25390625 40.921875 C-13.74279297 40.42429688 -13.23167969 39.92671875 -12.70507812 39.4140625 C-11.45732513 38.20129324 -10.20030761 36.99806781 -8.94140625 35.796875 C-9.78703125 34.806875 -10.63265625 33.816875 -11.50390625 32.796875 C-12.0453125 32.16265625 -12.58671875 31.5284375 -13.14453125 30.875 C-14.37063625 29.45698292 -15.61093189 28.05114318 -16.86328125 26.65625 C-17.4871875 25.96015625 -18.11109375 25.2640625 -18.75390625 24.546875 C-19.33785156 23.90234375 -19.92179687 23.2578125 -20.5234375 22.59375 C-23.42212047 18.92048783 -23.31063043 15.30140996 -22.94140625 10.796875 C-21.57114483 6.37241644 -19.6781385 2.87956739 -15.75390625 0.296875 C-10.52855428 -2.22609537 -5.31134184 -2.17250105 0 0 Z " fill="#FFEEF0" transform="translate(323.94140625,5.203125)"/>
<path d="M0 0 C11.16716479 8.33547873 11.16716479 8.33547873 13.32861328 14.81982422 C13.85620876 19.84495494 13.89853794 23.70032934 11.57861328 28.25732422 C8.23278992 32.06784527 5.50350959 34.31617601 0.38330078 35.12841797 C-6.59413893 35.54106225 -10.26950509 32.9606394 -15.67138672 28.81982422 C-27.4065838 20.23925001 -38.25336816 17.25165905 -52.67138672 18.81982422 C-66.61274605 21.40454901 -76.24382422 30.84010513 -85.67138672 40.81982422 C-90.92313598 36.43539896 -95.80361145 31.81140329 -100.60888672 26.94482422 C-101.29273438 26.25646484 -101.97658203 25.56810547 -102.68115234 24.85888672 C-104.34690136 23.18148911 -106.01024892 21.50178631 -107.67138672 19.81982422 C-100.93930165 5.2668703 -83.26291576 -4.91460563 -68.90185547 -10.20751953 C-45.46460741 -17.26420002 -20.10328348 -14.19504417 0 0 Z " fill="#FFE4E8" transform="translate(428.67138671875,231.18017578125)"/>
<path d="M0 0 C12.71086642 8.45434071 20.44764197 25.60447368 23.81640625 40.0078125 C27.57356366 60.23205409 24.32696323 80.34325851 13.4453125 97.9140625 C7.77983219 105.9913537 0.52849215 112.80855024 -6.5 119.6875 C-10.06764285 118.17373919 -12.33706287 116.08236871 -15.046875 113.3359375 C-15.89121094 112.48515625 -16.73554688 111.634375 -17.60546875 110.7578125 C-18.47816406 109.86835938 -19.35085937 108.97890625 -20.25 108.0625 C-21.58224609 106.71671875 -21.58224609 106.71671875 -22.94140625 105.34375 C-25.13216969 103.12942996 -27.31812763 100.91057565 -29.5 98.6875 C-26.47026823 95.0837858 -23.48888439 91.54749046 -20 88.375 C-11.86067872 80.32571546 -7.34545975 69.70262669 -6.5 58.359375 C-6.5 45.58824745 -10.9507783 36.27046477 -18.59765625 26.36328125 C-21.90277925 21.71439161 -24.16105533 17.62658294 -23.9140625 11.77734375 C-22.88007242 6.55862021 -19.98312096 2.76613343 -15.75 -0.3125 C-10.07906531 -2.05740298 -5.57730272 -2.09148852 0 0 Z " fill="#FFE4E8" transform="translate(254.5,56.3125)"/>
<path d="M0 0 C4.32410001 2.29229398 7.17779343 5.46135587 9 10 C9.3359375 12.3671875 9.3359375 12.3671875 9.375 14.875 C9.40335937 15.69742188 9.43171875 16.51984375 9.4609375 17.3671875 C8.29505453 24.02655293 2.44435505 28.82343739 -2.171875 33.3671875 C-2.8542926 34.04677521 -3.53671021 34.72636292 -4.23980713 35.42654419 C-6.40519349 37.58079945 -8.57745386 39.72796792 -10.75 41.875 C-12.22572108 43.34068216 -13.70098646 44.80682329 -15.17578125 46.2734375 C-18.77860194 49.85429166 -22.38760116 53.42880964 -26 57 C-29.52344644 55.3413812 -31.79901878 53.43342692 -34.546875 50.6484375 C-35.39121094 49.79765625 -36.23554688 48.946875 -37.10546875 48.0703125 C-37.97816406 47.18085938 -38.85085938 46.29140625 -39.75 45.375 C-41.08224609 44.02921875 -41.08224609 44.02921875 -42.44140625 42.65625 C-44.63216969 40.44192996 -46.81812763 38.22307565 -49 36 C-45.06519506 31.29628141 -40.97968488 26.82052645 -36.6484375 22.48046875 C-35.77646225 21.6035009 -35.77646225 21.6035009 -34.88687134 20.70881653 C-33.66969999 19.48662518 -32.45121021 18.26574553 -31.23144531 17.04614258 C-29.3675424 15.18003357 -27.51181057 13.30604061 -25.65625 11.43164062 C-24.46663531 10.23909486 -23.27654774 9.04702058 -22.0859375 7.85546875 C-21.53481293 7.29715866 -20.98368835 6.73884857 -20.41586304 6.16362 C-14.0995446 -0.11539134 -8.83020112 -1.3389586 0 0 Z " fill="#FFE2E6" transform="translate(327,172)"/>
<path d="M0 0 C4.85390614 2.11806814 7.26254688 5.04754256 9.37109375 9.78515625 C10.88855253 15.1292502 9.75271934 19.54832698 7.25 24.375 C4.2026707 27.93021751 1.66710956 29.51839057 -2.8125 30.8125 C-6.91306812 31.05370989 -10.26149119 30.78378154 -14 29 C-17.3461317 25.99354042 -20.73237554 22.43933112 -21.23828125 17.828125 C-21.40598914 12.00248235 -21.07836348 8.5076649 -17 4 C-11.8726135 -0.75221187 -6.66465834 -0.95351297 0 0 Z " fill="#FE838A" transform="translate(475,278)"/>
<path d="M0 0 C3.53176623 4.05114362 5.23710103 8.43026794 5.03515625 13.84765625 C4.11678728 19.08673255 2.39789291 22.080227 -1.875 25.4375 C-6.37854255 28.11502635 -10.76291989 28.10780434 -15.875 27.4375 C-20.53202344 24.98197855 -24.19167974 22.48746079 -25.875 17.4375 C-26.38204484 12.14262196 -26.52347741 7.78249019 -24.1875 2.9375 C-17.13178477 -4.69030025 -8.82440042 -4.7958698 0 0 Z " fill="#FE838A" transform="translate(214.875,15.5625)"/>
</svg>
